<svg width="24" height="24" viewBox="0 0 24 24" fill="none" xmlns="http://www.w3.org/2000/svg">
<path d="M18.9277 3.00516L18.7744 3.00047H18.75C18.0595 3.00047 17.4117 3.2775 16.8506 3.70359C16.2895 4.12969 16.125 4.5 16.125 4.5L20.25 8.53125C20.25 8.53125 20.7773 8.26359 21.0755 7.88203C21.3736 7.50047 21.7448 7.03453 21.7467 6.1425C21.75 4.47891 20.5125 3.10078 18.9277 3.00516V3.00516ZM5.07234 3.00516L5.22563 3.00047H5.25C5.94047 3.00047 6.58828 3.2775 7.14938 3.70359C7.71047 4.12969 7.875 4.5 7.875 4.5L3.75 8.53125C3.75 8.53125 3.22266 8.26359 2.92453 7.88203C2.62641 7.50047 2.25516 7.03453 2.25328 6.14063C2.25 4.47891 3.4875 3.10078 5.07234 3.00516V3.00516Z" fill="#6C757D"/>
<path d="M18.3422 18.0281C18.3417 18.0276 18.3415 18.0269 18.3415 18.0262C18.3415 18.0256 18.3417 18.0249 18.3422 18.0244C19.9219 16.125 20.6719 13.5112 20.0156 10.7452C19.3763 8.04891 16.6092 5.32219 13.9059 4.71422C8.53125 3.50578 3.75328 7.58016 3.75328 12.75C3.7514 14.678 4.42812 16.5452 5.66484 18.0244C5.66531 18.0249 5.66556 18.0256 5.66556 18.0262C5.66556 18.0269 5.66531 18.0276 5.66484 18.0281L3.42188 20.25C3.42141 20.2505 3.42116 20.2512 3.42116 20.2519C3.42116 20.2526 3.42141 20.2532 3.42188 20.2537L4.5 21.3089C4.50052 21.3094 4.50118 21.3096 4.50188 21.3096C4.50257 21.3096 4.50323 21.3094 4.50375 21.3089L6.72703 19.0884C6.72755 19.088 6.72821 19.0877 6.72891 19.0877C6.7296 19.0877 6.73027 19.088 6.73078 19.0884C8.21097 20.3235 10.0776 20.9999 12.0054 20.9999C13.9332 20.9999 15.7998 20.3235 17.28 19.0884H17.2833L19.5 21.3089C19.5005 21.3094 19.5012 21.3096 19.5019 21.3096C19.5026 21.3096 19.5032 21.3094 19.5037 21.3089L20.625 20.25L18.3422 18.0281ZM12.7533 13.5H7.5V12.0047L7.50234 12.0023H11.2523V6.75H12.7523L12.7533 13.5Z" fill="#6C757D"/>
</svg>
